# xmcd
#
# Track frame offsets:
# 180
# 14243
# 29222
# 45211
# 60627
# 73434
# 86688
# 98663
# 110989
# 123634
# 137062
# 150037
# 163092
# 179294
#
# Disc length: 2636 seconds
#
#
# Revision: 0
# Processed by: cddbd v1.5.1PL0 Copyright (c) Steve Scherf et al.
# Submitted via: FreeRIP 2.52 
#
DISCID=c70a4a0e
DTITLE=Límite - Sentimientos
DYEAR=1997
DGENRE=Country
TTITLE0=Hasta Mañana
TTITLE1=Donde Estas
TTITLE2=Se Acabo
TTITLE3=Se Quebro El Amor
TTITLE4=Tu Oportunidad
TTITLE5=Para Ser Feliz
TTITLE6=Mi Dueño
TTITLE7=Alcanzame
TTITLE8=Lastima
TTITLE9=No Cabe Duda
TTITLE10=Sentimientos
TTITLE11=Vuelve
TTITLE12=Me Ire De Aqui
TTITLE13=Without You
EXTD=YEAR: 1997 ID3G: 2
EXTT0=
EXTT1=
EXTT2=
EXTT3=
EXTT4=
EXTT5=
EXTT6=
EXTT7=
EXTT8=
EXTT9=
EXTT10=
EXTT11=
EXTT12=
EXTT13=
PLAYORDER=
